<svg width="48" height="49" viewBox="0 0 48 49" fill="none" xmlns="http://www.w3.org/2000/svg">
<path d="M46.3724 24.0622V39.7023H46.3646C46.0817 43.5894 36.1767 46.7118 23.9994 46.7118C11.8221 46.7118 1.91701 43.5894 1.63415 39.7023H1.62793V24.0622H1.66212C2.30712 27.8421 12.0599 30.8448 23.9994 30.8448C35.9389 30.8448 45.6932 27.8421 46.3382 24.0622H46.3724Z" fill="#40B984"/>
<path d="M33.6411 19.0716V30.1874C41.1713 29.0512 46.3717 26.6282 46.3717 23.8197C46.3717 21.218 41.9033 18.9441 35.2528 17.721C34.4136 17.5671 33.6411 18.2168 33.6411 19.07V19.0716Z" fill="#0B9A8F"/>
<path d="M14.357 19.0731C14.357 18.2198 13.5845 17.5701 12.7453 17.724C6.09631 18.9456 1.62793 21.2194 1.62793 23.8212C1.62793 26.6281 6.82835 29.0527 14.357 30.1889V19.0731Z" fill="#0B9A8F"/>
<path d="M31.6878 15.0072V8.25878C31.6878 7.59979 31.3366 6.99209 30.7662 6.66259L24.9223 3.28838C24.3519 2.95889 23.6494 2.95889 23.079 3.28838L17.2351 6.66259C16.6647 6.99209 16.3135 7.59979 16.3135 8.25878V15.0072C16.3135 15.6662 16.6647 16.2739 17.2351 16.6034L23.079 19.9776C23.6494 20.3071 24.3519 20.3071 24.9223 19.9776L30.7662 16.6034C31.3366 16.2739 31.6878 15.6662 31.6878 15.0072Z" fill="#40B984"/>
<path d="M24.001 20.217C24.3149 20.2154 24.6289 20.133 24.9102 19.9714L30.7541 16.5972C31.3245 16.2677 31.6757 15.66 31.6757 15.001V8.25259C31.6757 7.94175 31.5949 7.64489 31.4535 7.38068L24.001 11.6548V20.217Z" fill="#0B9A8F"/>
</svg>
